<?xml version="1.0" encoding="UTF-8" standalone="no"?> <svg width="64" height="64" viewBox="0 0 64 64" fill="none" xmlns="http://www.w3.org/2000/svg">
<path d="M32 2.5C26.3003 2.50794 20.8363 4.77566 16.806 8.80597C12.7757 12.8363 10.5079 18.3003 10.5 24C10.5 35.44 30 59.9 30.83 60.94C30.9706 61.1152 31.1487 61.2566 31.3512 61.3537C31.5537 61.4509 31.7754 61.5013 32 61.5013C32.2246 61.5013 32.4463 61.4509 32.6488 61.3537C32.8513 61.2566 33.0294 61.1152 33.17 60.94C34 59.9 53.5 35.44 53.5 24C53.4921 18.3003 51.2243 12.8363 47.194 8.80597C43.1637 4.77566 37.6997 2.50794 32 2.5V2.5Z" fill="#F0454E"/>
<path d="M32 36.79C39.0637 36.79 44.79 31.0637 44.79 24C44.79 16.9362 39.0637 11.21 32 11.21C24.9362 11.21 19.21 16.9362 19.21 24C19.21 31.0637 24.9362 36.79 32 36.79Z" fill="#E6E6E6"/>
</svg>
